HIERARCHY
ROOT root
{
	OFFSET 0.000000 0.000000 0.000000
	CHANNELS 6 Xposition Yposition Zposition Zrotation Yrotation Xrotation
	JOINT lhip
	{
		OFFSET 0.058581 -0.082280 -0.017664
		CHANNELS 3 Zrotation Yrotation Xrotation
		JOINT lknee
		{
			OFFSET 0.043451 -0.386469 0.008037
			CHANNELS 3 Zrotation Yrotation Xrotation
			JOINT lankle
			{
				OFFSET -0.014790 -0.426874 -0.037428
				CHANNELS 3 Zrotation Yrotation Xrotation
				JOINT ltoe
				{
					OFFSET 0.041054 -0.060286 0.122042
					CHANNELS 3 Zrotation Yrotation Xrotation
					End Site
					{
						OFFSET 0.000000 0.000000 0.000000
					}
				}
			}
		}
	}
	JOINT rhip
	{
		OFFSET -0.060310 -0.090513 -0.013543
		CHANNELS 3 Zrotation Yrotation Xrotation
		JOINT rknee
		{
			OFFSET -0.043257 -0.383688 -0.004843
			CHANNELS 3 Zrotation Yrotation Xrotation
			JOINT rankle
			{
				OFFSET 0.019056 -0.420046 -0.034562
				CHANNELS 3 Zrotation Yrotation Xrotation
				JOINT rtoe
				{
					OFFSET -0.034840 -0.062106 0.130323
					CHANNELS 3 Zrotation Yrotation Xrotation
					End Site
					{
						OFFSET 0.000000 0.000000 0.000000
					}
				}
			}
		}
	}
	JOINT lowerback
	{
		OFFSET 0.004439 0.124404 -0.038385
		CHANNELS 3 Zrotation Yrotation Xrotation
		JOINT upperback
		{
			OFFSET 0.004488 0.137956 0.026820
			CHANNELS 3 Zrotation Yrotation Xrotation
			JOINT chest
			{
				OFFSET -0.002265 0.056032 0.002855
				CHANNELS 3 Zrotation Yrotation Xrotation
				JOINT lowerneck
				{
					OFFSET -0.013390 0.211636 -0.033468
					CHANNELS 3 Zrotation Yrotation Xrotation
					JOINT upperneck
					{
						OFFSET 0.010113 0.088937 0.050410
						CHANNELS 3 Zrotation Yrotation Xrotation
						End Site
						{
							OFFSET 0.000000 0.000000 0.000000
						}
					}
				}
				JOINT lclavicle
				{
					OFFSET 0.071702 0.114000 -0.018898
					CHANNELS 3 Zrotation Yrotation Xrotation
					JOINT lshoulder
					{
						OFFSET 0.122921 0.045205 -0.019046
						CHANNELS 3 Zrotation Yrotation Xrotation
						JOINT lelbow
						{
							OFFSET 0.255332 -0.015649 -0.022946
							CHANNELS 3 Zrotation Yrotation Xrotation
							JOINT lwrist
							{
								OFFSET 0.265709 0.012698 -0.007375
								CHANNELS 3 Zrotation Yrotation Xrotation
								End Site
								{
									OFFSET 0.000000 0.000000 0.000000
								}
							}
						}
					}
				}
				JOINT rclavicle
				{
					OFFSET -0.082954 0.112472 -0.023707
					CHANNELS 3 Zrotation Yrotation Xrotation
					JOINT rshoulder
					{
						OFFSET -0.113228 0.046853 -0.008472
						CHANNELS 3 Zrotation Yrotation Xrotation
						JOINT relbow
						{
							OFFSET -0.260127 -0.014369 -0.031269
							CHANNELS 3 Zrotation Yrotation Xrotation
							JOINT rwrist
							{
								OFFSET -0.269108 0.006794 -0.006027
								CHANNELS 3 Zrotation Yrotation Xrotation
								End Site
								{
									OFFSET 0.000000 0.000000 0.000000
								}
							}
						}
					}
				}
			}
		}
	}
}
MOTION
Frames: 8
Frame Time: 0.033333
0.488675 0.191673 0.986959 92.063719 4.061643 96.969264 7.910128 3.677039 -6.538783 3.561627 -2.593283 -6.168130 -1.732581 9.197465 -2.385948 0.000000 -0.000000 0.000000 -1.305863 -2.384659 -8.490604 -0.761157 0.504397 1.336434 4.952870 -7.153993 -3.394866 0.000000 -0.000000 0.000000 -2.050545 0.520282 -1.312674 4.398009 -4.234218 -0.087943 0.340851 0.975884 -5.305434 2.763644 -16.428129 6.865914 8.780405 -18.582565 -7.822215 -20.745783 5.540282 -6.894712 -61.916168 -4.478482 25.504320 7.894402 -13.042520 8.286919 -10.723305 -7.925135 12.952455 22.795766 -1.338578 -5.820361 53.118429 3.990137 17.018054 -6.079039 16.825509 3.362534 6.933769 3.301180 4.114503 
0.488319 0.191015 0.986765 92.181778 4.117729 96.947252 8.016634 3.695987 -6.551059 3.519548 -2.728894 -6.214251 -1.668194 9.227061 -2.237946 0.000000 -0.000000 0.000000 -1.200088 -2.556178 -8.477743 -0.725469 0.571588 1.320691 4.934340 -7.088248 -3.420310 0.000000 -0.000000 0.000000 -1.861431 0.574556 -1.167030 4.334505 -4.108791 -0.542891 0.254259 0.908425 -4.826565 2.746076 -16.583289 7.020403 8.697739 -18.550329 -7.946149 -20.896920 5.660366 -7.128898 -61.938835 -4.700466 25.426302 8.159729 -13.253394 8.297605 -10.740153 -8.049386 12.873665 22.686350 -1.127694 -5.775290 53.117365 3.891733 16.867529 -5.949896 15.403181 3.320427 7.137157 3.171838 4.245296 
0.488466 0.190466 0.986639 92.433409 4.099584 96.984690 8.075883 3.615380 -6.605101 3.434280 -2.838715 -6.270437 -1.737656 9.243860 -2.166243 0.000000 -0.000000 0.000000 -1.118527 -2.631846 -8.417620 -0.800255 0.638107 1.245542 4.870225 -7.169214 -3.486230 0.000000 -0.000000 0.000000 -1.789715 0.568601 -1.159346 4.313952 -4.004206 -0.778676 0.198946 0.868028 -4.500332 2.679823 -16.940096 6.905547 8.726585 -18.524832 -8.085196 -20.906281 6.000708 -7.280371 -62.076613 -4.969879 25.454958 8.239337 -13.810448 8.317429 -10.682091 -8.112603 12.505296 22.430186 -1.131580 -5.794405 53.166910 3.842818 16.831450 -5.736552 13.869287 3.235712 7.385936 2.808488 3.783029 
0.488609 0.190194 0.986756 93.101945 4.097466 96.908019 8.101455 3.417996 -6.648965 3.433574 -3.199863 -6.303864 -1.886790 9.274479 -2.057141 0.000000 -0.000000 0.000000 -0.722071 -2.707814 -7.840244 -1.302417 0.955809 0.488305 4.524236 -7.760408 -3.592386 0.000000 -0.000000 0.000000 -1.378875 0.766903 -0.460067 4.068899 -3.893857 -1.314323 0.002222 0.664599 -4.613994 2.601068 -17.607826 6.799125 8.930817 -18.449819 -8.320918 -20.854944 6.361191 -7.365918 -62.199126 -5.518988 25.655360 7.860264 -14.689319 8.930359 -10.324875 -7.262039 11.078243 22.109013 -1.039588 -5.629423 53.346346 3.471585 17.090221 -5.705951 11.271193 2.472100 7.781306 2.070843 2.247929 
0.488515 0.190301 0.986689 93.235175 4.079536 96.871551 8.076342 3.375439 -6.640100 3.441624 -3.230718 -6.312935 -1.908908 9.250636 -2.031891 0.000000 -0.000000 0.000000 -0.723972 -2.752976 -7.765932 -1.331529 0.918317 0.449647 4.499960 -7.787183 -3.569948 0.000000 -0.000000 0.000000 -1.299126 0.790420 -0.361501 4.031529 -3.861368 -1.384360 -0.013084 0.619493 -4.602330 2.512866 -17.645374 6.817488 8.907124 -18.442552 -8.288914 -20.876756 6.381038 -7.349611 -62.262893 -5.627674 25.663258 7.836853 -14.846894 8.976473 -10.256069 -7.295743 10.911837 21.999997 -1.039907 -5.481549 53.410626 3.447690 17.021820 -5.752365 10.546807 2.323477 7.818640 1.940206 2.092739 
0.488659 0.190610 0.986458 93.509358 4.047316 96.835910 8.023886 3.338131 -6.613550 3.455560 -3.328094 -6.395499 -1.918555 9.180872 -1.992698 0.000000 -0.000000 0.000000 -0.738153 -2.894933 -7.620601 -1.373291 0.817376 0.347122 4.494547 -7.794605 -3.545470 0.000000 -0.000000 0.000000 -1.047566 0.823701 -0.119445 3.973939 -3.833874 -1.587538 -0.048825 0.401408 -4.488238 2.247364 -17.638873 6.573231 8.848862 -18.311610 -8.321517 -21.133477 6.729720 -7.546929 -62.178873 -5.722467 25.622399 7.680200 -15.438952 9.444077 -10.194642 -7.440960 10.683521 21.751535 -1.154924 -5.265181 53.524740 3.534121 16.814899 -5.789485 9.295486 2.178107 7.902946 1.744555 1.977783 
0.488861 0.191073 0.986496 93.757683 3.935341 97.035139 7.847652 3.312487 -6.779625 3.493449 -3.467033 -6.572439 -1.989503 9.154224 -1.894287 0.000000 -0.000000 0.000000 -0.858590 -2.951914 -7.754097 -1.399540 0.703981 0.308924 4.531962 -7.900717 -3.520265 0.000000 -0.000000 0.000000 -1.116091 0.820182 -0.526139 3.996660 -3.816861 -1.406371 -0.062552 0.330439 -4.513245 2.201699 -17.595433 6.675005 8.822121 -18.300919 -8.331860 -21.135684 6.887623 -7.553058 -62.308646 -5.820654 25.747800 7.605365 -15.699775 9.521644 -10.331097 -7.572299 10.736679 21.718191 -1.253832 -5.032260 53.469041 3.383415 16.685087 -5.883054 8.340451 1.796651 7.985055 1.603750 1.841081 
0.488829 0.191789 0.986447 94.015587 3.921411 96.934037 7.822132 3.303079 -6.589686 3.472022 -3.651650 -6.826360 -2.013607 9.084226 -1.833498 0.000000 -0.000000 0.000000 -0.908452 -3.011120 -7.559001 -1.405509 0.613442 0.240581 4.539406 -8.008961 -3.505673 0.000000 -0.000000 0.000000 -0.981353 0.779661 -0.267653 3.968242 -3.780759 -1.691287 -0.055854 0.309506 -4.369109 2.145224 -17.696156 6.583647 8.790143 -18.248085 -8.227303 -21.135938 6.944460 -7.522845 -62.423430 -5.914589 25.794262 7.451618 -15.885595 9.786559 -10.124666 -7.628359 10.514650 21.599495 -1.460992 -4.953542 53.479242 3.174116 16.576095 -5.978661 7.795117 1.594904 7.952508 1.553265 1.497317 
